<?xml version="1.0" encoding="UTF-8"?>
<svg width="150px" height="20px" viewBox="0 0 150 20" version="1.1" xmlns="http://www.w3.org/2000/svg" xmlns:xlink="http://www.w3.org/1999/xlink">
    <title>973F1097-8A37-4306-9925-6A0A847B0873</title>
    <g id="Page-1" stroke="none" stroke-width="1" fill="none" fill-rule="evenodd">
        <g id="ALB-typography" transform="translate(-200.000000, -9141.000000)">
            <g id="Group-3" transform="translate(-60.000000, 9134.000000)">
                <g id="footer-logo" transform="translate(260.000000, 7.000000)">
                    <g id="Logo---Wordmark-Copy-2" transform="translate(24.264706, 0.000000)" fill="#FFF">
                        <path d="M55.2622549,16.4981132 C57.3112745,16.4981132 58.8161765,14.9320755 58.8161765,12.8301887 C58.8161765,10.7283019 57.314951,9.16100629 55.2622549,9.16100629 C53.2095588,9.16100629 51.7083333,10.7320755 51.7083333,12.8301887 C51.7083333,14.9283019 53.2144608,16.4981132 55.2622549,16.4981132 Z M59.6360294,6.13710692 L62.2683824,6.13710692 L62.2683824,19.5232704 L59.504902,19.5232704 L59.2009804,18.3245283 C58.0302248,19.3693775 56.5268286,19.9373023 54.9754902,19.9207547 C51.0539216,19.9207547 48.1335784,16.881761 48.1335784,12.8301887 C48.1335784,8.77861635 51.0514706,5.77861635 54.9754902,5.77861635 C56.5533743,5.75856662 58.0821593,6.34140045 59.2647059,7.41383648 L59.6360294,6.13710692 Z M42.1948529,16.5345912 C43.5551471,16.5345912 44.7132353,15.6540881 45.2830882,14.9081761 L47.7169118,17.0188679 C45.9578374,19.4932289 42.8469414,20.5241946 40.010266,19.572887 C37.1735905,18.6215794 35.2558665,15.9042155 35.2594688,12.8411411 C35.2630813,9.77806661 37.1872003,7.06546952 40.0261082,6.12120393 C42.8650161,5.17693833 45.9734746,6.21562073 47.7267157,8.69433962 L45.2757353,10.7308176 C44.557598,9.91572327 43.4852941,9.19748428 42.1605392,9.19748428 C40.2745098,9.19748428 38.8517157,10.8327044 38.8517157,12.8515723 C38.8517157,14.8704403 40.3088235,16.5345912 42.1948529,16.5345912 Z M33.8504902,2.19496855 C33.8484601,3.40480238 32.8915299,4.38400767 31.7128308,4.38238962 C30.5341317,4.38076756 29.5797599,3.39893529 29.5808855,2.18910022 C29.5820131,0.979265148 30.5382118,-0.000692715117 31.7169118,-3.67024838e-07 C32.8954528,0.000694415907 33.8504902,0.981522459 33.8504902,2.19119497 L33.8504902,2.19496855 Z M29.9534314,19.5459119 L29.9534314,6.16352201 L33.4791667,6.16352201 L33.4791667,19.5421384 L29.9534314,19.5459119 Z M23.9558824,19.5459119 L23.9558824,2.20377358 L27.4816176,2.20377358 L27.4816176,19.5421384 L23.9558824,19.5459119 Z M17.9509804,19.5459119 L17.9509804,2.20377358 L21.4767157,2.20377358 L21.4767157,19.5421384 L17.9509804,19.5459119 Z M6.21813725,12.9811321 L10.6544118,12.9811321 L8.4252451,6.77610063 L6.21813725,12.9811321 Z M10.1151961,2.19119497 L16.9546569,19.5421384 L12.9901961,19.5421384 L11.810049,16.2528302 L5.08210784,16.2528302 L3.92156863,19.5421384 L0.0355392157,19.5421384 L6.66176471,2.19119497 L10.1151961,2.19119497 Z" id="Allica"></path>
                    </g>
                    <path d="M8.63112745,19.9207547 C13.3953773,19.9214504 17.2588722,15.9592792 17.2622549,11.0691824 L17.2622549,2.20377358 L0,2.20377358 L0,11.0691824 C0.003382691,15.9592792 3.86687759,19.9214504 8.63112745,19.9207547 Z" id="Shield-2-Copy" fill="#FF6F02"></path>
                    <path d="M103.008578,10.4025157 C104.498775,11.2037736 105.343137,12.7069182 105.343137,14.5358491 C105.343137,17.3194969 102.965686,19.5320755 100.034314,19.5320755 L92.8651961,19.5320755 L92.8651961,2.22264151 L99.8394608,2.22264151 C102.747549,2.22264151 104.909314,4.12704403 104.909314,6.67295597 C104.907335,8.16019589 104.197677,9.55266494 103.008578,10.4025157 L103.008578,10.4025157 Z M99.689951,16.1006289 C100.890931,16.1006289 101.681373,15.2867925 101.681373,14.1496855 C101.681373,13.036478 100.890931,12.2188679 99.689951,12.2188679 L96.4460784,12.2188679 L96.4460784,16.1006289 L99.689951,16.1006289 Z M101.370098,7.26415094 C101.370098,6.17861635 100.634804,5.41886792 99.4914216,5.41886792 L96.4522059,5.41886792 L96.4522059,9.1081761 L99.4914216,9.1081761 C100.642157,9.1081761 101.370098,8.35345912 101.370098,7.26163522 L101.370098,7.26415094 Z" id="Shape" fill="#FFF" fill-rule="nonzero"></path>
                    <path d="M120.742647,6.16352201 L120.742647,19.4968553 L117.988971,19.4968553 L117.6875,18.3044025 C116.521726,19.3447333 115.025096,19.9107826 113.480392,19.8955975 C109.572304,19.8955975 106.665441,16.8679245 106.665441,12.8314465 C106.665441,8.79496855 109.569853,5.80754717 113.480392,5.80754717 C115.051189,5.79023959 116.572135,6.37308214 117.747549,7.4427673 L118.115196,6.16855346 L120.742647,6.16352201 Z M117.300245,12.8301887 C117.300245,10.7371069 115.808824,9.18238994 113.76348,9.18238994 C111.718137,9.18238994 110.223039,10.7408805 110.223039,12.8301887 C110.223039,14.9194969 111.723039,16.4842767 113.76348,16.4842767 C115.803922,16.4842767 117.300245,14.9257862 117.300245,12.836478 L117.300245,12.8301887 Z" id="Shape" fill="#FFF" fill-rule="nonzero"></path>
                    <path d="M135.453431,11.4188679 L135.453431,19.5320755 L131.939951,19.5320755 L131.939951,12.0050314 C131.939951,10.9987421 131.753676,10.2440252 131.378676,9.7408805 C131.003676,9.23773585 130.435049,9.00125786 129.675245,9.00125786 C128.770833,9.00125786 128.040441,9.33584906 127.539216,9.93836478 C127.03799,10.5408805 126.759804,11.4138365 126.759804,12.4918239 L126.759804,19.527044 L123.247549,19.527044 L123.247549,6.14591195 L125.658088,6.14591195 L126,6.97358491 L126.348039,7.79874214 C126.854368,7.18216468 127.489316,6.69036514 128.205882,6.35974843 C128.975902,6.00280906 129.811976,5.82087925 130.656863,5.82629245 C132.136029,5.82629245 133.339461,6.37610063 134.171569,7.3509434 C135.003676,8.32578616 135.453431,9.7245283 135.453431,11.4188679 Z" id="Path" fill="#FFF" fill-rule="nonzero"></path>
                    <polygon id="Path" fill="#FFF" fill-rule="nonzero" points="145.63848 19.5056604 143.555147 16.318239 141.471814 13.1295597 141.471814 19.5081761 137.959559 19.5081761 137.959559 1.04779874 141.471814 1.04779874 141.471814 12.0955975 143.421569 9.13333333 145.371324 6.17106918 149.415441 6.17106918 147.230392 9.34591195 145.033088 12.5232704 147.464461 16.0150943 149.895833 19.5081761 145.63848 19.5081761"></polygon>
                </g>
            </g>
        </g>
    </g>
</svg>